<?xml version="1.0" encoding="utf-8"?>
<svg version="1.1" xmlns="http://www.w3.org/2000/svg" x="0" y="0" viewBox="0 0 20 20" xml:space="preserve">
  <!-- Circle outline (copied from existing postpone/skip icons for consistent weight) -->
  <path d="M9.98981,20.00012c1.37954,0,2.67244-0.26164,3.87869-0.78491c1.20625-0.52328,2.2681-1.24193,3.18553-2.15596
    c0.91743-0.91403,1.63778-1.97588,2.16106-3.18553C19.73837,12.66407,20,11.37287,20,10.00012c0-1.37275-0.26164-2.66225-0.78492-3.8685
    s-1.24363-2.2681-2.16106-3.18552c-0.91743-0.91743-1.97927-1.63778-3.18553-2.16106S11.36935,0.00012,9.98981,0.00012
    c-1.37275,0-2.66225,0.26164-3.8685,0.78491S3.85492,2.02867,2.94088,2.9461C2.02685,3.86353,1.3082,4.92537,0.78492,6.13162
    S0,8.62737,0,10.00012s0.25994,2.66395,0.77981,3.8736s1.23853,2.27149,2.15597,3.18553c0.91743,0.91403,1.98097,1.63268,3.19062,2.15596
    S8.62385,20.00012,9.98981,20.00012z M9.98981,19.21521c-1.27081,0-2.46177-0.23785-3.57288-0.71356
    c-1.11111-0.47571-2.08971-1.1366-2.93578-1.98267s-1.50696-1.82637-1.98267-2.94087s-0.71356-2.30717-0.71356-3.57798
    s0.23785-2.46347,0.71356-3.57798c0.47571-1.11451,1.1366-2.0948,1.98267-2.94088S5.30582,1.9726,6.41693,1.49349
    S8.719,0.77484,9.98981,0.77484c1.27761,0,2.47197,0.23955,3.58308,0.71865c1.11111,0.47911,2.08971,1.14169,2.93578,1.98777
    s1.50866,1.82637,1.98776,2.94088c0.4791,1.11451,0.71865,2.30717,0.71865,3.57798s-0.23785,2.46347-0.71356,3.57798
    c-0.47571,1.11451-1.1366,2.0948-1.98267,2.94087c-0.84607,0.84607-1.82637,1.50696-2.94087,1.98267
    C12.46347,18.97735,11.26742,19.2152,9.98981,19.21521z"/>
  <!-- Further slimmed check mark (stroke-width 0.7) for lighter visual weight -->
  <path d="M6 10.6l3 3 5.8-5.8" stroke="currentColor" stroke-width="0.7" stroke-linecap="round" stroke-linejoin="round" fill="none"/>
</svg>
